<svg version="1" xmlns="http://www.w3.org/2000/svg" width="20" height="7" viewBox="0 0 20 7"><path d="M14.4 1.7h1.9v5.1h1.4V1.7h1.8V.3h-5.1v1.4" opacity=".5"/><g opacity=".5"><path d="M11.7 3.3c0-.1.1-.1.1-.2V3c.1-.2.2-.5.2-.7 0-.5-.2-1-.6-1.4-.4-.4-.9-.6-1.4-.6H7.3v6.5h3.1c.5 0 1-.2 1.4-.6.4-.4.6-.9.6-1.4 0-.5-.2-1-.5-1.3-.1 0-.2-.1-.2-.2M11 4.8c0 .2-.1.4-.2.5-.1.1-.2.2-.4.2H8.7V4.1h1.6c.2 0 .3.1.5.2.1.2.2.3.2.5zM8.7 2.9V1.6h1.2c.2 0 .3.1.5.2.1.1.2.3.2.5V2.6c-.1.2-.3.3-.5.4H8.7zM3.8 1.6c.7 0 1.4.4 1.7 1l1.1-.9C6 .7 4.9.1 3.8.1 1.9.1.4 1.6.4 3.5.4 5.5 1.9 7 3.8 7 4.9 7 6 6.4 6.6 5.5l-1.1-.9c-.4.6-1 1-1.7 1-1.1 0-2-.9-2-2s.9-2 2-2"/></g></svg>