<svg version="1" xmlns="http://www.w3.org/2000/svg" width="13" height="24" viewBox="0 0 13 24"><path fill="#66C5B2" d="M2 17.8h9v1H2v-1zm0 2h6.5v1H2v-1zm1.1-7.9s.2-.2.6-.4l.8-.3c.4-.2.9-.5.9-.5.4.3.7.5 1.1.5.4 0 .8-.2 1.1-.5 0 0 .4.3.9.5l.8.3c.4.1.5.4.6.4.6.9.7 2.8.7 3 0 .3-.1.4-.1.4-1.3.6-3 .8-4 .8s-2.7-.2-4-.8c0 0-.1-.1-.1-.4 0-.1.1-2.1.7-3zm1.6-3.8s.1-.1.1-.2c-.1-.8 0-1.2 0-1.2.2-.7.9-1.1 1.1-1.1H6.2s.3 0 .7.2l.3.1c.5.2.8.5.8.5.6.4.5 1.2.4 1.6v.1c0 .1.1.2 0 .6 0 .1-.1.2-.1.3v.1c-.1.9-.9 1.8-1.8 1.8-.7 0-1.5-.9-1.6-1.9v-.1c-.2 0-.2-.1-.2-.2-.1-.3-.1-.5 0-.6zm1-6.8h1.4c.3 0 .5.2.5.5s-.2.5-.5.5H5.7c-.3-.1-.5-.3-.5-.6 0-.2.2-.4.5-.4zm6.9 1.8H8.4v1.2c0 .2-.2.4-.4.4H5.2c-.2 0-.3-.1-.3-.2h3c.1-.1.2-.3.2-.5V.4C8.1.2 8 0 7.8 0H4.9c-.2 0-.3.2-.3.4v2.7H.4c-.2 0-.4.1-.4.3V23c0 .2.2.4.4.4h12.3c.2 0 .4-.2.4-.4V3.4c-.1-.2-.3-.3-.5-.3z"/></svg>