<svg version="1" xmlns="http://www.w3.org/2000/svg" width="80" height="20" viewBox="0 0 80 20"><path fill-rule="evenodd" clip-rule="evenodd" d="M3.7 8.5h2.1v3.6c.6-.1 1.2-.4 1.8-.5 1.2-.2 2.4 0 3.5.7 2.2 1.5 2.2 4.9 0 6.5-1.7 1.3-4.5 1.2-6.1-.2-.8-.7-1.2-1.6-1.3-2.6V8.5m4.6 9.4c1.3 0 2.4-1 2.4-2.2 0-1.2-1.1-2.2-2.4-2.2-1.3 0-2.4 1-2.4 2.2.1 1.2 1.1 2.2 2.4 2.2z"/><path d="M38.8 8.3h-1.3c-.1 0-.1.1-.1.2s.1.2.2.2h1.1c-.3.5-.7 1-1.1 1.5l-1.2 1.5c-.4.5-.7.9-1.1 1.3-.3.4-.6.7-.8.9-.3.3-.5.6-.7.8l-.4.4c-.1.1-.1.2-.2.2v.1c0 .1.1.1.2.1l.2-.2c.1-.1.2-.2.3-.4l.4-.4c.1-.1.2-.3.3-.3.4-.5.8-.9 1-1.2.3-.3.6-.6.8-1l.1.1c-.5.7-.9 1.2-1.2 1.8-.4.5-.7 1-.9 1.5-.2.5-.4.9-.6 1.3-.1.4-.2.8-.2 1.3 0 .3.1.7.3 1 .2.3.6.5 1.1.5.4 0 .9-.2 1.5-.6.6-.4 1.4-1 2.3-2 .2-.2.3-.3.5-.6.2-.2.4-.4.5-.6s.3-.3.4-.5l.2-.2c0-.1-.1-.2-.2-.2 0 0-.1 0-.1.1-.1.1-.1.2-.3.3-.1.2-.3.4-.6.6-.2.3-.5.6-.9 1-.7.7-1.3 1.2-1.9 1.6-.5.4-1.1.6-1.5.6-.4 0-.6-.2-.6-.5 0-.2.1-.6.4-1.1.2-.5.6-1.1.9-1.7.4-.6.8-1.3 1.3-2.1s.9-1.4 1.3-2.1c.4-.7.8-1.3 1.2-1.8s.6-1 .8-1.2H44c.1 0 .2-.1.2-.2s-.1-.2-.2-.2h-3.6l2-3.1-1.9.1-1.7 3.2M71.4 0v.2c.7 0 1.2.2 1.5.5.3.3.5.7.6 1.1s.1 1.2.1 2.1v12.6L58.8 0h-3.7v.2c.5.1.9.2 1.3.4.3.2.8.6 1.4 1.2l.6.7v12.7c0 1.1-.1 1.9-.2 2.5s-.3.9-.6 1.1c-.3.2-.7.3-1.3.4v.2h4.9v-.2c-.8 0-1.4-.3-1.7-.7-.2-.2-.3-.6-.3-1-.1-.5-.1-1.2-.1-2.2v-12l15 16.7h.1V2.9c0-.7.1-1.2.2-1.6.2-.4.4-.6.7-.8s.7-.2 1.2-.3V0h-4.9"/><g><path d="M55.2 18.4h-.6c-.2 0-.4 0-.5-.1-.2-.1-.3-.2-.4-.4s-.1-.4-.1-.7v-2-2.6c0-.7-.1-1.2-.3-1.7-.2-.4-.5-.8-.9-1-.4-.2-.9-.4-1.4-.5-.5-.1-1.1-.1-1.7-.1-.4 0-.9.1-1.5.2-.5.1-1 .3-1.4.4-.4.2-.8.4-1 .7s-.4.6-.4 1 .1.8.4 1c.3.3.7.4 1.2.4.4 0 .7 0 .8-.1s.3-.2.5-.3c.1-.1.2-.2.2-.4.1-.2.1-.3.1-.4 0-.2 0-.5-.1-.8-.1 0-.1-.2-.2-.4.1-.1.3-.2.5-.2s.4-.1.7-.1c.3 0 .6.1.8.2.2.1.3.3.4.5.1.2.1.4.2.7v1.5c-.4.2-1 .4-1.8.6-.8.2-1.5.4-2.1.7-.3.1-.6.2-.8.4-.3.1-.5.3-.7.5-.2.2-.4.5-.5.8s-.2.6-.2 1.1c0 .7.3 1.3.8 1.7s1.2.7 1.9.7c.5 0 .9 0 1.2-.1l.9-.3c.2-.1.4-.2.6-.4.2-.2.4-.3.6-.6h.1c.1.4.4.8.8 1 .4.2.9.3 1.7.3.4 0 .8-.1 1.2-.2.4-.1.7-.2 1-.3v-.7m-4.8-1c-.2.2-.4.4-.6.5-.2.1-.5.2-.9.2-.3 0-.6-.1-.8-.3-.2-.2-.3-.6-.3-1.1 0-.4.1-.7.2-1 .1-.3.3-.5.6-.7.2-.2.5-.3.9-.5s.7-.3 1.1-.4l-.2 3.3zM14.3 10.7c0 4.1 2.6 9 8.9 9 5.5 0 9.2-4.2 9.2-9.4 0-5.3-3.9-8.6-9-8.6-6.4 0-9.1 5.3-9.1 9m2.1-.7c0-5 2.9-7.5 6.7-7.5 3.6 0 7 3 7 8.5 0 6.7-4.3 7.9-6.3 7.9-4.1-.1-7.4-3.5-7.4-8.9z"/></g></svg>