<svg version="1" xmlns="http://www.w3.org/2000/svg" width="65" height="65" viewBox="0 0 65 65"><g fill="#FFF"><path d="M63 54.5L48.1 39.6C45.9 43 43 46 39.5 48.2l14.9 14.9c2.4 2.4 6.2 2.4 8.6 0 2.4-2.4 2.4-6.3 0-8.6zM24.3 42.6c-10 0-18.2-8.2-18.2-18.2S14.2 6.1 24.3 6.1c10 0 18.2 8.2 18.2 18.2s-8.2 18.3-18.2 18.3zm24.3-18.2C48.6 11 37.7.1 24.3.1S0 10.9 0 24.4c0 13.4 10.9 24.3 24.3 24.3 13.4-.1 24.3-10.9 24.3-24.3z"/></g><path fill="#FFF" d="M10.1 24.4h4c0-5.6 4.5-10.1 10.1-10.1v-4c-7.7-.1-14.1 6.2-14.1 14.1z"/></svg>