<svg version="1" xmlns="http://www.w3.org/2000/svg" width="13" height="13" viewBox="0 0 13 13"><path fill="#66C5B2" d="M8.3 8.9c-.3.4-.8.6-1.4.6v.9h-.8v-.9c-1-.1-1.6-.7-1.9-1.8l1.2-.3c.1.7.5 1 1.1 1 .3 0 .5-.1.6-.2.1-.1.2-.3.2-.5s-.1-.4-.2-.5c0 0-.3-.2-.8-.3-.4-.1-.8-.3-1-.4-.2-.2-.4-.4-.6-.7-.1-.2-.2-.5-.2-.9s.1-.9.4-1.2c.3-.4.7-.6 1.2-.7v-.7h.8V3c.9.1 1.4.6 1.7 1.5l-1.1.4C7.3 4.3 7 4 6.6 4c-.3 0-.4.1-.6.2-.1.2-.2.3-.2.5s.1.3.2.4c.1.1.4.2.8.4.5.2.9.4 1.1.5.3.1.5.4.6.6.2.3.2.6.2.9.1.6-.1 1-.4 1.4zm-1.8-9C2.9-.1 0 2.8 0 6.4s2.9 6.5 6.5 6.5S13 10 13 6.4 10.1-.1 6.5-.1z"/></svg>