<svg version="1" xmlns="http://www.w3.org/2000/svg" width="40" height="40" viewBox="361 335.5 40 40"><g fill="#FFF"><path d="M383.4 362.8h-.1 5.6v-1.4h-3.3c-.7.6-1.4 1.1-2.2 1.4zM374.4 355.4c0-1.1.9-1.9 1.9-1.9 1.1 0 1.9.9 1.9 1.9s-.9 1.9-1.9 1.9c-1.1 0-1.9-.9-1.9-1.9zm5.8 2c1.1 0 1.9.9 1.9 1.9s-.9 1.9-1.9 1.9-1.9-.9-1.9-1.9c0-1.1.9-1.9 1.9-1.9zm.8-2c0 .4-.3.7-.7.7-.4 0-.7-.3-.7-.7 0-.4.3-.7.7-.7.4-.1.7.2.7.7zm-.8-5.9c1.1 0 1.9.9 1.9 1.9s-.9 1.9-1.9 1.9-1.9-.9-1.9-1.9c0-1.1.9-1.9 1.9-1.9zm4 3.9c1.1 0 1.9.9 1.9 1.9s-.9 1.9-1.9 1.9c-1.1 0-1.9-.9-1.9-1.9s.8-1.9 1.9-1.9zm-4 9.4c1.6 0 3.1-.5 4.3-1.4 1.9-1.4 3.2-3.6 3.2-6.1 0-4.1-3.4-7.5-7.5-7.5s-7.5 3.4-7.5 7.5c0 4.2 3.4 7.5 7.5 7.5z"/></g></svg>