<?xml version="1.0" encoding="utf-8"?>
<!-- Generator: Adobe Illustrator 16.0.0, SVG Export Plug-In . SVG Version: 6.00 Build 0)  -->
<!DOCTYPE svg PUBLIC "-//W3C//DTD SVG 1.0//EN" "http://www.w3.org/TR/2001/REC-SVG-20010904/DTD/svg10.dtd">
<svg version="1.0" id="Layer_1" xmlns="http://www.w3.org/2000/svg" xmlns:xlink="http://www.w3.org/1999/xlink" x="0px" y="0px"
	 width="20px" height="7px" viewBox="0 0 20 7" enable-background="new 0 0 20 7" xml:space="preserve">
<g opacity="0.5">
	<polyline points="14.4,1.7 16.3,1.7 16.3,6.8 16.3,6.8 17.7,6.8 17.7,1.7 19.5,1.7 19.5,0.3 14.4,0.3 14.4,1.7 	"/>
</g>
<g opacity="0.5">
	<g>
		<path d="M11.7,3.3c0-0.1,0.1-0.1,0.1-0.2l0-0.1C11.9,2.8,12,2.5,12,2.3c0-0.5-0.2-1-0.6-1.4C11,0.5,10.5,0.3,10,0.3H7.3v6.5h3.1
			c0.5,0,1-0.2,1.4-0.6c0.4-0.4,0.6-0.9,0.6-1.4c0-0.5-0.2-1-0.5-1.3C11.8,3.5,11.7,3.4,11.7,3.3 M11,4.8c0,0.2-0.1,0.4-0.2,0.5
			c-0.1,0.1-0.2,0.2-0.4,0.2l-1.7,0V4.1h1.6c0.2,0,0.3,0.1,0.5,0.2C10.9,4.5,11,4.6,11,4.8z M8.7,2.9V1.6h1.2c0.2,0,0.3,0.1,0.5,0.2
			c0.1,0.1,0.2,0.3,0.2,0.5l0,0.1c0,0,0,0.1,0,0.1l0,0c0,0,0,0.1,0,0.1c-0.1,0.2-0.3,0.3-0.5,0.4H8.7z"/>
		<path d="M3.8,1.6c0.7,0,1.4,0.4,1.7,1l1.1-0.9C6,0.7,4.9,0.1,3.8,0.1c-1.9,0-3.4,1.5-3.4,3.4C0.4,5.5,1.9,7,3.8,7
			C4.9,7,6,6.4,6.6,5.5L5.5,4.6c-0.4,0.6-1,1-1.7,1c-1.1,0-2-0.9-2-2C1.8,2.5,2.7,1.6,3.8,1.6"/>
	</g>
</g>
</svg>
