<?xml version="1.0" encoding="utf-8"?>
<!-- Generator: Adobe Illustrator 16.0.0, SVG Export Plug-In . SVG Version: 6.00 Build 0)  -->
<!DOCTYPE svg PUBLIC "-//W3C//DTD SVG 1.1//EN" "http://www.w3.org/Graphics/SVG/1.1/DTD/svg11.dtd">
<svg version="1.1" id="Layer_1" xmlns="http://www.w3.org/2000/svg" xmlns:xlink="http://www.w3.org/1999/xlink" x="0px" y="0px"
	 width="40px" height="40px" viewBox="-109.5 150.5 40 40" enable-background="new -109.5 150.5 40 40" xml:space="preserve">
<g>
	<path d="M-86.9,178H-87h5.601v-1.399h-3.301C-85.4,177.2-86.1,177.7-86.9,178z"/>
	<path d="M-95.9,170.601c0-1.101,0.899-1.9,1.899-1.9c1.101,0,1.9,0.9,1.9,1.9S-93,172.5-94,172.5
		C-95.1,172.5-95.9,171.601-95.9,170.601z M-90.1,172.601c1.1,0,1.899,0.899,1.899,1.899s-0.899,1.9-1.899,1.9s-1.9-0.9-1.9-1.9
		C-92,173.4-91.1,172.601-90.1,172.601z M-89.3,170.601c0,0.399-0.3,0.699-0.7,0.699c-0.399,0-0.7-0.3-0.7-0.699
		c0-0.4,0.301-0.7,0.7-0.7C-89.6,169.8-89.3,170.101-89.3,170.601z M-90.1,164.7c1.1,0,1.899,0.9,1.899,1.9S-89.1,168.5-90.1,168.5
		s-1.9-0.899-1.9-1.899C-92,165.5-91.1,164.7-90.1,164.7z M-86.1,168.601c1.1,0,1.899,0.899,1.899,1.899s-0.899,1.9-1.899,1.9
		c-1.101,0-1.9-0.9-1.9-1.9S-87.201,168.601-86.1,168.601z M-90.1,178c1.6,0,3.1-0.5,4.3-1.399c1.9-1.4,3.2-3.601,3.2-6.101
		c0-4.1-3.4-7.5-7.5-7.5c-4.101,0-7.5,3.4-7.5,7.5C-97.6,174.7-94.201,178-90.1,178z"/>
</g>
</svg>
