<?xml version="1.0" encoding="utf-8"?>
<!-- Generator: Adobe Illustrator 16.0.0, SVG Export Plug-In . SVG Version: 6.00 Build 0)  -->
<!DOCTYPE svg PUBLIC "-//W3C//DTD SVG 1.0//EN" "http://www.w3.org/TR/2001/REC-SVG-20010904/DTD/svg10.dtd">
<svg version="1.0" id="Layer_1" xmlns="http://www.w3.org/2000/svg" xmlns:xlink="http://www.w3.org/1999/xlink" x="0px" y="0px"
	 width="40px" height="40px" viewBox="361 335.5 40 40" enable-background="new 361 335.5 40 40" xml:space="preserve">
<g>
	<path fill="#FFFFFF" d="M383.4,362.8c0,0-0.1,0-0.1,0h5.6v-1.4h-3.3C384.9,362,384.2,362.5,383.4,362.8z"/>
	<path fill="#FFFFFF" d="M374.4,355.4c0-1.1,0.9-1.9,1.9-1.9c1.1,0,1.9,0.9,1.9,1.9s-0.9,1.9-1.9,1.9
		C375.2,357.3,374.4,356.4,374.4,355.4z M380.2,357.4c1.1,0,1.9,0.9,1.9,1.9s-0.9,1.9-1.9,1.9s-1.9-0.9-1.9-1.9
		C378.3,358.2,379.2,357.4,380.2,357.4z M381,355.4c0,0.4-0.3,0.7-0.7,0.7c-0.4,0-0.7-0.3-0.7-0.7c0-0.4,0.3-0.7,0.7-0.7
		C380.7,354.6,381,354.9,381,355.4z M380.2,349.5c1.1,0,1.9,0.9,1.9,1.9s-0.9,1.9-1.9,1.9s-1.9-0.9-1.9-1.9
		C378.3,350.3,379.2,349.5,380.2,349.5z M384.2,353.4c1.1,0,1.9,0.9,1.9,1.9s-0.9,1.9-1.9,1.9c-1.1,0-1.9-0.9-1.9-1.9
		S383.1,353.4,384.2,353.4z M380.2,362.8c1.6,0,3.1-0.5,4.3-1.4c1.9-1.4,3.2-3.6,3.2-6.1c0-4.1-3.4-7.5-7.5-7.5
		c-4.1,0-7.5,3.4-7.5,7.5C372.7,359.5,376.1,362.8,380.2,362.8z"/>
</g>
</svg>
