<?xml version="1.0" encoding="utf-8"?>
<!-- Generator: Adobe Illustrator 16.0.0, SVG Export Plug-In . SVG Version: 6.00 Build 0)  -->
<!DOCTYPE svg PUBLIC "-//W3C//DTD SVG 1.0//EN" "http://www.w3.org/TR/2001/REC-SVG-20010904/DTD/svg10.dtd">
<svg version="1.0" id="Layer_1" xmlns="http://www.w3.org/2000/svg" xmlns:xlink="http://www.w3.org/1999/xlink" x="0px" y="0px"
	 width="13px" height="13px" viewBox="0 0 13 13" enable-background="new 0 0 13 13" xml:space="preserve">
<g>
	<g>
		<path fill="#66C5B2" d="M9,6.9H6.5C6.3,6.9,6,6.7,6,6.4v-3c0-0.3,0.2-0.5,0.5-0.5C6.8,2.9,7,3.2,7,3.4v2.5h2
			c0.3,0,0.5,0.2,0.5,0.5C9.4,6.7,9.2,6.9,9,6.9z M6.5,1.8C4,1.8,1.9,3.8,1.9,6.4C1.9,8.9,4,11,6.5,11c2.6,0,4.6-2.1,4.6-4.6
			C11.2,3.8,9.1,1.8,6.5,1.8z"/>
		<path fill="#66C5B2" d="M6.5,11.9c-3,0-5.5-2.5-5.5-5.5c0-3,2.5-5.5,5.5-5.5c3,0,5.5,2.5,5.5,5.5C12,9.4,9.6,11.9,6.5,11.9z
			 M6.5-0.1C2.9-0.1,0,2.8,0,6.4c0,3.6,2.9,6.5,6.5,6.5c3.6,0,6.5-2.9,6.5-6.5C13,2.8,10.1-0.1,6.5-0.1z"/>
	</g>
</g>
</svg>
