<?xml version="1.0" encoding="utf-8"?>
<!-- Generator: Adobe Illustrator 16.0.0, SVG Export Plug-In . SVG Version: 6.00 Build 0)  -->
<!DOCTYPE svg PUBLIC "-//W3C//DTD SVG 1.0//EN" "http://www.w3.org/TR/2001/REC-SVG-20010904/DTD/svg10.dtd">
<svg version="1.0" id="Layer_1" xmlns="http://www.w3.org/2000/svg" xmlns:xlink="http://www.w3.org/1999/xlink" x="0px" y="0px"
	 width="13px" height="24px" viewBox="0 0 13 24" enable-background="new 0 0 13 24" xml:space="preserve">
<g>
	<path fill="#66C5B2" d="M2,17.8h9v1H2V17.8z M2,19.8h6.5v1H2V19.8z M3.1,11.9c0,0,0.2-0.2,0.6-0.4c0,0,0.8-0.3,0.8-0.3
		c0.4-0.2,0.9-0.5,0.9-0.5l0,0c0.4,0.3,0.7,0.5,1.1,0.5c0,0,0,0,0,0c0,0,0,0,0,0c0.4,0,0.8-0.2,1.1-0.5l0,0c0,0,0.4,0.3,0.9,0.5
		c0,0,0.8,0.3,0.8,0.3c0.4,0.1,0.5,0.4,0.6,0.4c0.6,0.9,0.7,2.8,0.7,3c0,0.3-0.1,0.4-0.1,0.4c-1.3,0.6-3,0.8-4,0.8
		c-1,0-2.7-0.2-4-0.8c0,0-0.1-0.1-0.1-0.4C2.4,14.8,2.5,12.8,3.1,11.9z M4.7,8.1L4.7,8.1C4.7,8.1,4.8,8,4.8,7.9
		c-0.1-0.8,0-1.2,0-1.2C5,6,5.7,5.6,5.9,5.6c0,0,0.1,0,0.1,0l0,0l0.1,0l0,0l0,0l0.1,0c0,0,0.3,0,0.7,0.2l0.3,0.1
		c0.5,0.2,0.8,0.5,0.8,0.5C8.6,6.8,8.5,7.6,8.4,8c0,0,0,0.1,0,0.1l0,0c0,0.1,0.1,0.2,0,0.6c0,0.1-0.1,0.2-0.1,0.3c0,0,0,0.1,0,0.1
		c-0.1,0.9-0.9,1.8-1.8,1.8C5.8,10.9,5,10,4.9,9c0,0,0-0.1,0-0.1C4.7,8.9,4.7,8.8,4.7,8.7C4.6,8.4,4.6,8.2,4.7,8.1z M5.7,1.3h1.4
		c0.3,0,0.5,0.2,0.5,0.5c0,0.3-0.2,0.5-0.5,0.5H5.7C5.4,2.2,5.2,2,5.2,1.7C5.2,1.5,5.4,1.3,5.7,1.3z M12.6,3.1H8.4v1.2
		c0,0.2-0.2,0.4-0.4,0.4H5.2c-0.2,0-0.3-0.1-0.3-0.2c0,0,0,0,0.1,0h2.9C8,4.4,8.1,4.2,8.1,4V0.4C8.1,0.2,8,0,7.8,0H4.9
		C4.7,0,4.6,0.2,4.6,0.4v2.7H0.4C0.2,3.1,0,3.2,0,3.4v19.6c0,0.2,0.2,0.4,0.4,0.4h12.3c0.2,0,0.4-0.2,0.4-0.4V3.4
		C13,3.2,12.8,3.1,12.6,3.1z"/>
</g>
</svg>
