<?xml version="1.0" encoding="utf-8"?>
<!-- Generator: Adobe Illustrator 16.0.0, SVG Export Plug-In . SVG Version: 6.00 Build 0)  -->
<!DOCTYPE svg PUBLIC "-//W3C//DTD SVG 1.0//EN" "http://www.w3.org/TR/2001/REC-SVG-20010904/DTD/svg10.dtd">
<svg version="1.0" id="Layer_1" xmlns="http://www.w3.org/2000/svg" xmlns:xlink="http://www.w3.org/1999/xlink" x="0px" y="0px"
	 width="80px" height="20px" viewBox="0 0 80 20" enable-background="new 0 0 80 20" xml:space="preserve">
<g>
	<g>
		<path fill-rule="evenodd" clip-rule="evenodd" d="M3.7,8.5c0.7,0,1.4,0,2.1,0c0,1.2,0,2.5,0,3.6C6.4,12,7,11.7,7.6,11.6
			c1.2-0.2,2.4,0,3.5,0.7c2.2,1.5,2.2,4.9,0,6.5C9.4,20.1,6.6,20,5,18.6C4.2,17.9,3.8,17,3.7,16C3.7,13.5,3.7,11.1,3.7,8.5
			 M8.3,17.9c1.3,0,2.4-1,2.4-2.2c0-1.2-1.1-2.2-2.4-2.2c-1.3,0-2.4,1-2.4,2.2C6,16.9,7,17.9,8.3,17.9z"/>
		<path d="M38.8,8.3h-1.3c-0.1,0-0.1,0.1-0.1,0.2c0,0.1,0.1,0.2,0.2,0.2h1.1c-0.3,0.5-0.7,1-1.1,1.5c-0.4,0.5-0.8,1-1.2,1.5
			c-0.4,0.5-0.7,0.9-1.1,1.3c-0.3,0.4-0.6,0.7-0.8,0.9c-0.3,0.3-0.5,0.6-0.7,0.8c-0.2,0.2-0.3,0.3-0.4,0.4c-0.1,0.1-0.1,0.2-0.2,0.2
			c0,0.1,0,0.1,0,0.1c0,0.1,0.1,0.1,0.2,0.1c0,0,0.1-0.1,0.2-0.2c0.1-0.1,0.2-0.2,0.3-0.4c0.1-0.1,0.3-0.3,0.4-0.4
			c0.1-0.1,0.2-0.3,0.3-0.3c0.4-0.5,0.8-0.9,1-1.2c0.3-0.3,0.6-0.6,0.8-1l0.1,0.1c-0.5,0.7-0.9,1.2-1.2,1.8c-0.4,0.5-0.7,1-0.9,1.5
			c-0.2,0.5-0.4,0.9-0.6,1.3c-0.1,0.4-0.2,0.8-0.2,1.3c0,0.3,0.1,0.7,0.3,1c0.2,0.3,0.6,0.5,1.1,0.5c0.4,0,0.9-0.2,1.5-0.6
			c0.6-0.4,1.4-1,2.3-2c0.2-0.2,0.3-0.3,0.5-0.6c0.2-0.2,0.4-0.4,0.5-0.6s0.3-0.3,0.4-0.5c0.1-0.1,0.2-0.2,0.2-0.2
			c0-0.1-0.1-0.2-0.2-0.2c0,0-0.1,0-0.1,0.1c-0.1,0.1-0.1,0.2-0.3,0.3c-0.1,0.2-0.3,0.4-0.6,0.6c-0.2,0.3-0.5,0.6-0.9,1
			c-0.7,0.7-1.3,1.2-1.9,1.6c-0.5,0.4-1.1,0.6-1.5,0.6c-0.4,0-0.6-0.2-0.6-0.5c0-0.2,0.1-0.6,0.4-1.1c0.2-0.5,0.6-1.1,0.9-1.7
			c0.4-0.6,0.8-1.3,1.3-2.1s0.9-1.4,1.3-2.1c0.4-0.7,0.8-1.3,1.2-1.8s0.6-1,0.8-1.2h3.8c0.1,0,0.2-0.1,0.2-0.2
			c0-0.1-0.1-0.2-0.2-0.2h-3.6l2-3.1l-1.9,0.1L38.8,8.3"/>
		<path d="M71.4,0v0.2c0.7,0,1.2,0.2,1.5,0.5c0.3,0.3,0.5,0.7,0.6,1.1s0.1,1.2,0.1,2.1v12.6L58.8,0h-3.7v0.2
			c0.5,0.1,0.9,0.2,1.3,0.4c0.3,0.2,0.8,0.6,1.4,1.2l0.6,0.7v12.7c0,1.1-0.1,1.9-0.2,2.5s-0.3,0.9-0.6,1.1c-0.3,0.2-0.7,0.3-1.3,0.4
			v0.2h4.9v-0.2c-0.8,0-1.4-0.3-1.7-0.7c-0.2-0.2-0.3-0.6-0.3-1c-0.1-0.5-0.1-1.2-0.1-2.2v-12l15,16.7h0.1V2.9
			c0-0.7,0.1-1.2,0.2-1.6c0.2-0.4,0.4-0.6,0.7-0.8s0.7-0.2,1.2-0.3V0H71.4"/>
	</g>
</g>
<g>
	<path d="M55.2,18.4c-0.2,0-0.4,0-0.6,0c-0.2,0-0.4,0-0.5-0.1c-0.2-0.1-0.3-0.2-0.4-0.4s-0.1-0.4-0.1-0.7c0-0.3,0-1,0-2
		c0-1,0-1.8,0-2.6c0-0.7-0.1-1.2-0.3-1.7c-0.2-0.4-0.5-0.8-0.9-1c-0.4-0.2-0.9-0.4-1.4-0.5c-0.5-0.1-1.1-0.1-1.7-0.1
		c-0.4,0-0.9,0.1-1.5,0.2c-0.5,0.1-1,0.3-1.4,0.4c-0.4,0.2-0.8,0.4-1,0.7s-0.4,0.6-0.4,1c0,0.4,0.1,0.8,0.4,1
		c0.3,0.3,0.7,0.4,1.2,0.4c0.4,0,0.7,0,0.8-0.1s0.3-0.2,0.5-0.3c0.1-0.1,0.2-0.2,0.2-0.4c0.1-0.2,0.1-0.3,0.1-0.4
		c0-0.2,0-0.5-0.1-0.8C48,11,48,10.8,47.9,10.6c0.1-0.1,0.3-0.2,0.5-0.2s0.4-0.1,0.7-0.1c0.3,0,0.6,0.1,0.8,0.2
		c0.2,0.1,0.3,0.3,0.4,0.5c0.1,0.2,0.1,0.4,0.2,0.7c0,0.3,0,0.5,0,0.6v0.9c-0.4,0.2-1,0.4-1.8,0.6c-0.8,0.2-1.5,0.4-2.1,0.7
		c-0.3,0.1-0.6,0.2-0.8,0.4c-0.3,0.1-0.5,0.3-0.7,0.5c-0.2,0.2-0.4,0.5-0.5,0.8s-0.2,0.6-0.2,1.1c0,0.7,0.3,1.3,0.8,1.7
		s1.2,0.7,1.9,0.7c0.5,0,0.9,0,1.2-0.1c0.3-0.1,0.6-0.2,0.9-0.3c0.2-0.1,0.4-0.2,0.6-0.4c0.2-0.2,0.4-0.3,0.6-0.6h0.1
		c0.1,0.4,0.4,0.8,0.8,1c0.4,0.2,0.9,0.3,1.7,0.3c0.4,0,0.8-0.1,1.2-0.2c0.4-0.1,0.7-0.2,1-0.3V18.4 M50.4,17.4
		c-0.2,0.2-0.4,0.4-0.6,0.5c-0.2,0.1-0.5,0.2-0.9,0.2c-0.3,0-0.6-0.1-0.8-0.3c-0.2-0.2-0.3-0.6-0.3-1.1c0-0.4,0.1-0.7,0.2-1
		c0.1-0.3,0.3-0.5,0.6-0.7c0.2-0.2,0.5-0.3,0.9-0.5c0.4-0.2,0.7-0.3,1.1-0.4L50.4,17.4z"/>
	<path d="M14.3,10.7c0,4.1,2.6,9,8.9,9c5.5,0,9.2-4.2,9.2-9.4c0-5.3-3.9-8.6-9-8.6C17,1.7,14.3,7,14.3,10.7 M16.4,10
		c0-5,2.9-7.5,6.7-7.5c3.6,0,7,3,7,8.5c0,6.7-4.3,7.9-6.3,7.9C19.7,18.8,16.4,15.4,16.4,10z"/>
</g>
</svg>
