<?xml version="1.0" encoding="utf-8"?>
<!-- Generator: Adobe Illustrator 16.0.0, SVG Export Plug-In . SVG Version: 6.00 Build 0)  -->
<!DOCTYPE svg PUBLIC "-//W3C//DTD SVG 1.0//EN" "http://www.w3.org/TR/2001/REC-SVG-20010904/DTD/svg10.dtd">
<svg version="1.0" id="Layer_1" xmlns="http://www.w3.org/2000/svg" xmlns:xlink="http://www.w3.org/1999/xlink" x="0px" y="0px"
	 width="65px" height="65px" viewBox="0 0 65 65" enable-background="new 0 0 65 65" xml:space="preserve">
<g>
	<g>
		<path fill="#FFFFFF" d="M63,54.5L48.1,39.6c-2.2,3.4-5.1,6.4-8.6,8.6l14.9,14.9c2.4,2.4,6.2,2.4,8.6,0
			C65.4,60.7,65.4,56.8,63,54.5z"/>
		<path fill="#FFFFFF" d="M24.3,42.6c-10,0-18.2-8.2-18.2-18.2S14.2,6.1,24.3,6.1c10,0,18.2,8.2,18.2,18.2S34.3,42.6,24.3,42.6z
			 M48.6,24.4c0-13.4-10.9-24.3-24.3-24.3C10.9,0.1,0,10.9,0,24.4c0,13.4,10.9,24.3,24.3,24.3C37.7,48.6,48.6,37.8,48.6,24.4z"/>
	</g>
</g>
<g>
	<path fill="#FFFFFF" d="M10.1,24.4h4c0-5.6,4.5-10.1,10.1-10.1v-4C16.5,10.2,10.1,16.5,10.1,24.4z"/>
</g>
</svg>
