<?xml version="1.0" encoding="utf-8"?>
<!-- Generator: Adobe Illustrator 16.0.0, SVG Export Plug-In . SVG Version: 6.00 Build 0)  -->
<!DOCTYPE svg PUBLIC "-//W3C//DTD SVG 1.0//EN" "http://www.w3.org/TR/2001/REC-SVG-20010904/DTD/svg10.dtd">
<svg version="1.0" id="Layer_1" xmlns="http://www.w3.org/2000/svg" xmlns:xlink="http://www.w3.org/1999/xlink" x="0px" y="0px"
	 width="13px" height="13px" viewBox="0 0 13 13" enable-background="new 0 0 13 13" xml:space="preserve">
<g>
	<g>
		<path fill="#66C5B2" d="M9.9,9.5L9.4,10C9.3,10.1,9,10.1,9,10.1c-1.6,0-3.2-0.6-4.4-1.8C3.5,7.2,2.8,5.6,2.8,3.9
			c0,0,0.1-0.3,0.2-0.4l0.5-0.5c0.2-0.2,0.6-0.3,0.8-0.2l0.1,0C4.7,3,5,3.3,5,3.5l0.3,1c0.1,0.3,0,0.6-0.2,0.8L4.7,5.7
			c0.3,1.3,1.3,2.3,2.6,2.6l0.3-0.3c0.2-0.2,0.6-0.3,0.8-0.2l1,0.3C9.7,8,10,8.3,10.1,8.6l0,0.1C10.2,8.9,10.1,9.3,9.9,9.5z M6.5,0
			C2.9,0,0,2.9,0,6.5S2.9,13,6.5,13c3.6,0,6.5-2.9,6.5-6.5S10.1,0,6.5,0z"/>
	</g>
</g>
</svg>
