<?xml version="1.0" encoding="utf-8"?>
<!-- Generator: Adobe Illustrator 16.0.0, SVG Export Plug-In . SVG Version: 6.00 Build 0)  -->
<!DOCTYPE svg PUBLIC "-//W3C//DTD SVG 1.0//EN" "http://www.w3.org/TR/2001/REC-SVG-20010904/DTD/svg10.dtd">
<svg version="1.0" id="Layer_1" xmlns="http://www.w3.org/2000/svg" xmlns:xlink="http://www.w3.org/1999/xlink" x="0px" y="0px"
	 width="13px" height="13px" viewBox="0 0 13 13" enable-background="new 0 0 13 13" xml:space="preserve">
<g>
	<g>
		<path fill="#66C5B2" d="M8.3,8.9C8,9.3,7.5,9.5,6.9,9.5v0.9H6.1V9.5c-1-0.1-1.6-0.7-1.9-1.8l1.2-0.3c0.1,0.7,0.5,1,1.1,1
			c0.3,0,0.5-0.1,0.6-0.2c0.1-0.1,0.2-0.3,0.2-0.5c0-0.2-0.1-0.4-0.2-0.5C7.1,7.2,6.8,7,6.3,6.9c-0.4-0.1-0.8-0.3-1-0.4
			C5.1,6.3,4.9,6.1,4.7,5.8C4.6,5.6,4.5,5.3,4.5,4.9c0-0.4,0.1-0.9,0.4-1.2C5.2,3.3,5.6,3.1,6.1,3V2.3h0.8V3
			c0.9,0.1,1.4,0.6,1.7,1.5L7.5,4.9C7.3,4.3,7,4,6.6,4C6.3,4,6.2,4.1,6,4.2C5.9,4.4,5.8,4.5,5.8,4.7c0,0.2,0.1,0.3,0.2,0.4
			c0.1,0.1,0.4,0.2,0.8,0.4C7.3,5.7,7.7,5.9,7.9,6c0.3,0.1,0.5,0.4,0.6,0.6c0.2,0.3,0.2,0.6,0.2,0.9C8.8,8.1,8.6,8.5,8.3,8.9z
			 M6.5-0.1C2.9-0.1,0,2.8,0,6.4c0,3.6,2.9,6.5,6.5,6.5c3.6,0,6.5-2.9,6.5-6.5C13,2.8,10.1-0.1,6.5-0.1z"/>
	</g>
</g>
</svg>
